<?xml version="1.0" encoding="utf-8"?>

<!DOCTYPE svg PUBLIC "-//W3C//DTD SVG 1.1//EN" "http://www.w3.org/Graphics/SVG/1.1/DTD/svg11.dtd">
<!-- Uploaded to: SVG Repo, www.svgrepo.com, Generator: SVG Repo Mixer Tools -->
<svg height="800px" width="800px" version="1.1" id="_x32_" xmlns="http://www.w3.org/2000/svg" xmlns:xlink="http://www.w3.org/1999/xlink" 
	 viewBox="0 0 512 512"  xml:space="preserve">
<style type="text/css">
	.st0{fill:#000000;}
</style>
<g>
	<path class="st0" d="M438.013,391.217c-11.728-12.137-26.33-19.837-40.536-25.323v-13.678c-0.007-5.527-3.798-10.298-9.173-11.547
		l-45.507-10.471c-0.91-0.208-1.812-0.312-2.687-0.312c-2.659,0-5.27,0.895-7.381,2.582c-2.701,2.153-4.291,5.382-4.416,8.839
		c-1.604-1.027-3.104-2.062-4.36-3.104c-2.097-1.722-3.618-3.416-4.486-4.826c-0.875-1.438-1.125-2.444-1.138-3.396
		c0-7.672,0-17.261,0-29.892c10.186-11.338,24.816-28.892,30.857-56.7c5.52-2.167,11.748-5.222,17.567-10.887
		c7.304-7.09,13.519-17.72,18.192-34.127c1.444-5.062,2.139-9.658,2.139-13.888c0.028-6.714-1.854-12.526-4.93-16.893
		c-1.521-2.16-3.264-3.82-5.062-5.277c0.819-2.548,1.444-5.152,1.986-7.846c1.145-5.652,2.055-11.922,3.826-20.282
		c1.228-5.825,1.854-12.054,1.854-18.546c-0.021-24.684-8.971-53.389-29.822-76.296C334.111,16.428,301.205-0.07,255.364,0
		c-45.848-0.07-78.753,16.428-99.577,39.342c-20.858,22.913-29.801,51.618-29.822,76.295c0,6.492,0.618,12.728,1.854,18.553
		c1.77,8.36,2.68,14.63,3.826,20.282c0.673,3.347,1.507,6.541,2.652,9.679c-1.687,1.639-3.277,3.59-4.422,6.152
		c-1.576,3.492-2.424,7.708-2.424,12.658c0,5.298,0.938,11.484,3.077,18.97c2.318,8.13,4.77,14.568,7.47,19.83
		c4.007,7.867,8.86,13.2,14.11,16.623c3.715,2.43,7.339,3.874,10.721,5.096c6.055,27.753,20.657,45.286,30.836,56.61
		c0,12.63,0,22.219,0,29.892c-0.006,0.716-0.194,1.57-0.882,2.799c-1,1.826-3.228,4.249-6.332,6.576
		c-0.216,0.159-0.493,0.312-0.708,0.472c-0.472-2.882-1.944-5.52-4.25-7.36c-2.118-1.687-4.728-2.582-7.381-2.582
		c-0.874,0-1.784,0.096-2.708,0.319l0.132-0.035l-45.604,10.492c-5.388,1.256-9.179,6.027-9.186,11.554v12.88
		c-13.498,5.138-27.677,12.276-39.543,23.392c-7.396,6.944-13.832,15.47-18.345,25.816c-4.527,10.346-7.11,22.455-7.103,36.419
		c0,3.319,0.146,6.735,0.444,10.269c0.236,2.694,1.291,4.853,2.492,6.618c2.312,3.284,5.347,5.7,9.158,8.2
		c6.673,4.284,15.915,8.478,27.719,12.603c35.335,12.296,93.577,23.573,164.429,23.586c57.568,0,106.854-7.471,142.224-16.845
		c17.698-4.7,31.898-9.846,42.154-14.97c5.145-2.583,9.304-5.131,12.602-7.922c1.646-1.41,3.097-2.882,4.326-4.652
		c1.202-1.764,2.256-3.924,2.493-6.618c0.306-3.631,0.451-7.138,0.451-10.54C460.329,424.408,451.283,404.876,438.013,391.217z
		 M343.825,355.813h0.076v-9.304l37.94,8.728v17.796h0.382v61.624h-6.339h-5.569l-0.118,5.569c-0.084,3.909-3.264,7.055-7.173,7.048
		c-3.909,0.007-7.089-3.138-7.172-7.048l-0.118-5.569h-11.908V355.813z M167.341,49.889c17.956-19.588,45.834-34.183,88.023-34.252
		c42.182,0.07,70.06,14.672,88.016,34.252c17.928,19.594,25.76,44.806,25.732,65.755c0,5.478-0.528,10.658-1.514,15.31
		c-1.868,8.825-2.84,15.422-3.854,20.414c-0.34,1.659-0.681,3.069-1.041,4.395c-3.278-0.653-5.569-0.68-5.923-0.688l-0.083,11.492
		c-3.152,3.597-5.853,6.339-7.985,8.277l-3.007-49.472l-2.958-0.798l-0.104-0.035c-0.729-0.208-4.819-1.507-9.034-4.18
		c-2.298-1.451-4.548-3.312-6.444-5.527l-0.16-1.028c-0.201,0.028-0.368,0.042-0.562,0.07c-1.264-1.652-2.375-3.437-3.048-5.493
		l-8.096,2.694c0.417,1.237,1.042,2.264,1.597,3.368c-4.048-0.167-7.034-0.903-9.138-1.875c-0.298-0.138-0.507-0.306-0.778-0.451
		l-0.104-0.694l-0.465,0.062c-0.104,0.014-0.298,0.028-0.438,0.048c-2.25-1.479-3.402-3.18-4.083-4.694
		c-0.402-0.93-0.611-1.784-0.701-2.361l-0.083-0.632l-0.007-0.104l-1.569,0.056h-6.957c0.014,0.417,0.153,3.854,2.312,7.874
		c-3.791-0.284-7.95-0.952-11.707-2.354c-5.416-2.035-9.742-5.215-12.019-10.7l-0.868,0.354v-8.214h-8.527v28.739
		c-6.048-1.923-10.735-4.298-14.429-6.812l-0.007-0.02c-0.007,0-0.014,0-0.021,0c-4.152-2.834-7.068-5.832-9.096-8.576
		c-2.152-2.937-3.333-5.61-3.972-7.499c-0.32-0.944-0.507-1.687-0.604-2.166l-0.097-0.506l-0.007-0.049l-8.485,0.889
		c0.056,0.507,0.812,6.902,6.284,14.38c1.201,1.646,2.68,3.333,4.367,5.006c-0.521,0.014-1.125,0.098-1.632,0.098
		c-9.499-0.014-15.317-2.771-18.893-5.354c-1.785-1.298-2.993-2.576-3.736-3.486l-0.764-1.042l-0.139-0.222l-0.014-0.022
		l-2.02,1.132l-5.485,2.923c0.215,0.403,2.222,4.027,7.131,7.61c0.18,0.132,0.444,0.257,0.632,0.389
		c-1.056,0.215-2.18,0.396-3.465,0.389c-2.125,0-4.576-0.354-7.374-1.368c-9.186-3.36-13.318-7.547-15.352-10.706
		c-1.014-1.584-1.5-2.952-1.75-3.923l-0.208-1.118l-0.028-0.34h-3.25l3.25,0.167l-8.526-0.431l-0.007,0.264
		c0,1.021,0.222,5.111,3.333,9.978c0.805,1.27,1.819,2.576,3.042,3.881c-2.063,4.686-4.868,7.527-7.346,9.228
		c-1.43,0.972-2.736,1.576-3.645,1.924l-1.021,0.34l-0.222,0.056v0.007l-3.188,0.646l-3.013,49.688
		c-2.84-2.583-6.638-6.472-11.256-12.124h0.007c-1.784-3.138-2.764-6.332-3.785-11.36c-1.013-4.992-1.986-11.589-3.854-20.414
		c-0.986-4.659-1.52-9.832-1.52-15.318C141.581,94.689,149.413,69.484,167.341,49.889z M177.181,236.19l-0.792-4.478l-4.277-1.527
		c-3.243-1.153-5.978-2.062-8.249-3.125c-3.402-1.638-5.895-3.312-8.901-7.402c-2.972-4.09-6.222-10.866-9.395-22.018
		c-1.84-6.443-2.478-11.269-2.472-14.678c0-3.208,0.535-5.124,1.034-6.222c0.778-1.611,1.348-1.82,1.896-2.124l0.632-0.195
		l0.056-0.007l-0.354-2.812v-0.854c10.401,12.179,16.866,15.922,17.386,16.199l5.882,3.173l3.541-58.34
		c1.333-0.548,2.93-1.319,4.722-2.527c3.174-2.132,6.721-5.604,9.416-10.721c2.701,1.694,5.895,3.291,9.721,4.673
		c3.715,1.354,7.193,1.888,10.29,1.888c6.992-0.02,11.832-2.631,14.005-4.082c3.659,1.042,7.826,1.77,12.748,1.763
		c3.465,0,7.36-0.444,11.492-1.159c5.173,3.048,11.526,5.756,19.47,7.658l5.263,1.271v-18.976c3.006,2.611,6.457,4.485,9.922,5.756
		c6.846,2.521,13.936,3.062,19.268,3.077c1.784,0,3.277-0.077,4.59-0.16c0.042,0.02,0.07,0.048,0.111,0.07
		c3.701,1.715,8.402,2.735,14.296,2.735c1.458,0,3-0.062,4.611-0.194c2.298,2.166,4.722,3.999,6.999,5.353
		c2.896,1.722,5.548,2.874,7.464,3.604l3.541,58.311l5.881-3.173c0.5-0.27,6.492-3.742,16.192-14.817
		c0.729,0.27,1.458,0.548,2.132,0.93c1.743,0.958,3.187,2.166,4.242,3.812c1.035,1.66,1.874,3.868,1.896,7.617
		c0,2.5-0.416,5.673-1.535,9.596c-4.208,14.7-9.228,22.504-14.046,27.192c-4.84,4.68-9.874,6.728-15.977,8.908l-4.284,1.527
		l-0.785,4.478c-5.006,28.024-19.449,43.793-30.114,55.673l-2.006,2.236v2.999c0,14.22,0,24.587,0,32.884
		c-0.014,4.319,1.409,8.326,3.492,11.652c1.68,2.674,3.764,4.992,6.076,7.103c-4.347,6.86-9.638,11.7-16.498,15.206
		c-8.95,4.534-20.942,6.728-36.842,6.721c-15.901,0.007-27.892-2.187-36.842-6.721c-8.068-4.125-13.936-10.193-18.664-19.164
		c1.112-1.34,2.125-2.771,3-4.312c1.722-3.041,2.896-6.624,2.888-10.485c0-8.297,0-18.664,0-32.884V294.1l-2.006-2.236
		C196.629,279.983,182.187,264.214,177.181,236.19z M131.999,373.033h0.382V355.23l37.939-8.721v9.304h0.077v78.844h-6.339h-5.569
		l-0.118,5.569c-0.084,3.909-3.264,7.055-7.173,7.048c-3.909,0.007-7.089-3.138-7.172-7.048l-0.118-5.569h-11.908V373.033z
		 M69.153,460.348c-0.75-0.632-1.18-1.111-1.41-1.403c-0.215-2.84-0.348-5.596-0.348-8.221c0.007-12.061,2.188-21.893,5.791-30.156
		c3.479-7.95,8.423-14.408,14.2-19.97c1.326,2.972,2.985,6.895,4.832,11.575c-2.542,4.833-11.061,22.698-16.185,52.659
		C72.944,463.146,70.584,461.576,69.153,460.348z M86.72,469.853c2.632-16.671,6.388-29.551,9.61-38.46
		c0.5-1.388,0.986-2.659,1.458-3.854c4.846,14.63,9.366,32.468,10.616,49.848C100.052,474.901,92.755,472.346,86.72,469.853z
		 M393.144,480.303c-7.103,1.861-14.776,3.66-23.032,5.312c-29.78,5.992-66.81,10.304-108.429,10.68v-44.098h-11.374v44.077
		c-52.59-0.472-97.765-7.27-130.358-15.706c-0.965-21.608-6.762-43.272-12.554-60.138c-4.333-12.574-8.603-22.33-10.929-27.385
		c0.417-0.299,0.791-0.639,1.215-0.931c7.11-4.826,15.005-8.596,22.942-11.72v65.637h13.088c2.486,7.305,9.311,12.61,17.484,12.616
		c8.172-0.006,14.998-5.311,17.484-12.616h13.088v-87.05l0.513,1.048c4.326-2.139,8.583-4.59,12.478-7.416
		c5.5,9.45,12.783,16.776,22.192,21.484c11.297,5.686,25.08,7.936,41.966,7.943c16.886-0.007,30.67-2.257,41.966-7.943
		c8.499-4.249,15.352-10.533,20.65-18.671c3.5,2.125,7.152,4.041,10.915,5.763v84.843h13.089c2.486,7.305,9.311,12.61,17.484,12.616
		c8.172-0.006,14.998-5.311,17.484-12.616h13.088v-64.755c8.068,3.229,15.88,7.166,22.865,12.13
		c-2.368,5.159-6.541,14.755-10.77,27.024C399.928,437.225,394.151,458.778,393.144,480.303z M404.705,477.033
		c1.062-14.283,4.326-28.809,8.152-41.648c1.93,3.597,4.159,7.944,6.367,12.679c3.096,6.618,6.041,13.978,8.11,20.893
		C421.183,471.61,413.579,474.345,404.705,477.033z M444.241,458.972c-0.153,0.181-0.368,0.431-0.68,0.73
		c-1.07,1.042-3.124,2.548-5.916,4.18c-2.764-8.742-6.534-17.478-10.166-24.928c-4.333-8.832-8.304-15.699-9.811-18.234
		c2.632-7.346,5.201-13.651,7.18-18.206c0.25-0.57,0.444-1.007,0.673-1.521c0.389,0.382,0.854,0.687,1.229,1.076
		c10.588,11.102,17.776,25.802,17.859,48.382C444.61,453.168,444.471,456.029,444.241,458.972z"/>
	<polygon class="st0" points="232.041,94.022 233.534,93.869 233.527,93.834 	"/>
	<polygon class="st0" points="342.769,330.191 342.797,330.198 342.804,330.198 	"/>
	<circle class="st0" cx="151.198" cy="414.125" r="4.888"/>
	<circle class="st0" cx="363.023" cy="414.125" r="4.888"/>
	<path class="st0" d="M276.25,414.021c-7.999-1.778-13.304-15.109-18.636-15.109v-0.014c-5.333-0.118-10.756,13.116-18.789,14.713
		c-8.034,1.598-12.283-7.387-12.283-7.387s1.479,13.372,11.256,13.588c9.776,0.216,11.824-5.076,19.817-4.902
		c7.999,0,9.748,5.332,19.525,5.332s11.554-13.332,11.554-13.332S284.249,415.798,276.25,414.021z"/>
	<path class="st0" d="M211.37,458.126c-9.478-3.555-7.999-13.338,1.187-17.775c4.77-2.305-5.631-7.562-11.852-1.188
		c-5.298,5.43-6.222,15.845,1.187,20.143c2.548,1.479,5.43,2.708,8.533,4.777c3.632,2.423,7.02,6.207,8.054,8.263
		C220.258,475.894,220.848,461.681,211.37,458.126z"/>
	<path class="st0" d="M220.036,447.453c-1.347,0-2.444,1.097-2.444,2.445c0,1.346,1.097,2.444,2.444,2.444
		c1.347,0,2.444-1.097,2.444-2.444C222.48,448.55,221.383,447.453,220.036,447.453z"/>
	<path class="st0" d="M297.782,440.35c9.186,4.437,10.665,14.22,1.187,17.775c-9.478,3.555-8.888,17.768-7.11,14.22
		c1.034-2.056,4.423-5.84,8.054-8.263c3.104-2.069,5.985-3.298,8.534-4.777c7.409-4.298,6.485-14.713,1.187-20.143
		C303.413,432.789,293.012,438.045,297.782,440.35z"/>
	<path class="st0" d="M292.748,449.898c0-1.348-1.097-2.445-2.444-2.445c-1.347,0-2.444,1.097-2.444,2.445
		c0,1.346,1.097,2.444,2.444,2.444C291.651,452.342,292.748,451.244,292.748,449.898z"/>
</g>
</svg>