<?xml version="1.0" encoding="iso-8859-1"?>
<!-- Uploaded to: SVG Repo, www.svgrepo.com, Generator: SVG Repo Mixer Tools -->
<svg fill="#000000" height="800px" width="800px" version="1.1" id="Layer_1" xmlns="http://www.w3.org/2000/svg" xmlns:xlink="http://www.w3.org/1999/xlink" 
	 viewBox="0 0 512 512" xml:space="preserve">
<g>
	<g>
		<g>
			<path d="M501.939,494.379c-2.219,0.367-4.574,0.555-7.006,0.555c-19.618,0-26.283-11.955-26.505-12.348
				c-1.417-2.85-4.344-4.608-7.526-4.659c-3.191,0.043-6.17,1.741-7.68,4.548c-0.273,0.503-6.938,12.459-26.556,12.459
				c-19.618,0-26.283-11.955-26.505-12.348c-1.425-2.85-4.344-4.608-7.526-4.659c-3.371,0.043-6.161,1.741-7.68,4.548
				c-0.273,0.503-6.938,12.459-26.556,12.459c-19.618,0-26.283-11.955-26.496-12.348c-1.425-2.85-4.352-4.608-7.535-4.659
				c-3.217,0.043-6.17,1.741-7.68,4.548c-0.273,0.503-6.938,12.459-26.556,12.459c-19.618,0-26.283-11.955-26.505-12.348
				c-1.417-2.85-4.343-4.608-7.526-4.659c-3.379-0.043-6.161,1.741-7.68,4.548c-0.273,0.503-6.946,12.459-26.556,12.459
				c-19.61,0-26.283-11.955-26.505-12.348c-1.425-2.85-4.343-4.608-7.526-4.659c-3.379-0.043-6.161,1.741-7.68,4.548
				c-0.273,0.503-6.946,12.459-26.556,12.459c-19.61,0-26.283-11.955-26.496-12.348c-1.434-2.85-4.352-4.608-7.535-4.659
				c-3.371-0.043-6.161,1.741-7.68,4.548c-0.273,0.503-6.946,12.459-26.556,12.459c-19.61,0-26.283-11.955-26.505-12.348
				c-1.425-2.85-4.343-4.608-7.526-4.659c-3.371-0.043-6.161,1.741-7.68,4.548c-0.273,0.503-6.946,12.459-26.556,12.459
				c-2.458,0-4.608-0.179-6.972-0.58c-4.693-0.785-9.054,2.338-9.839,6.989c-0.794,4.642,2.338,9.045,6.989,9.839
				c3.294,0.555,6.417,0.819,9.822,0.819c16.888,0,27.733-6.4,34.133-12.254C57.6,505.6,68.446,512,85.333,512
				c16.888,0,27.733-6.4,34.133-12.254C125.867,505.6,136.713,512,153.6,512c16.887,0,27.733-6.4,34.133-12.254
				c6.4,5.854,17.246,12.254,34.133,12.254c16.887,0,27.733-6.4,34.133-12.254C262.4,505.6,273.254,512,290.133,512
				c16.879,0,27.733-6.4,34.133-12.254C330.667,505.6,341.513,512,358.4,512c16.879,0,27.733-6.4,34.133-12.254
				c6.4,5.854,17.254,12.254,34.133,12.254s27.733-6.4,34.133-12.254C467.2,505.6,478.054,512,494.933,512
				c3.362,0,6.647-0.264,9.788-0.776c4.651-0.777,7.791-5.163,7.031-9.813C510.993,496.76,506.667,493.645,501.939,494.379z"/>
			<path d="M136.533,162.133c0,81.434-32.384,131.319-32.708,131.814c-2.594,3.925-1.527,9.216,2.389,11.819
				c1.459,0.964,3.098,1.425,4.719,1.425c2.756,0,5.461-1.331,7.1-3.789c1.451-2.185,35.567-54.357,35.567-141.269
				c0-62.566-17.681-107.128-28.126-128h31.829c7.339,12.868,30.43,58.812,30.43,128c0,68.898-23.117,115.072-30.447,128h-12.22
				c-4.71,0-8.533,3.823-8.533,8.533s3.823,8.533,8.533,8.533H204.8v8.533c0,4.71,3.823,8.533,8.533,8.533
				c4.71,0,8.533-3.823,8.533-8.533V307.2h93.867c2.85,0,5.521-1.425,7.1-3.797c1.451-2.185,35.567-54.357,35.567-141.269
				c0-86.921-34.116-139.085-35.567-141.269c-2.62-3.917-7.91-4.992-11.836-2.364c-3.925,2.611-4.984,7.91-2.364,11.836
				c0.324,0.486,32.7,49.997,32.7,131.797c0,68.659-23.014,114.884-30.43,128h-31.855c10.436-20.813,28.151-65.297,28.151-128
				s-17.715-107.187-28.151-128h2.552c4.719,0,8.533-3.823,8.533-8.533c0-4.71-3.814-8.533-8.533-8.533h-59.733V8.533
				c0-4.71-3.823-8.533-8.533-8.533c-4.71,0-8.533,3.823-8.533,8.533v8.533h-93.867c-3.149,0-6.033,1.732-7.526,4.506
				c-1.485,2.773-1.323,6.144,0.427,8.764C104.158,30.822,136.533,80.333,136.533,162.133z M259.703,34.133
				c7.339,12.868,30.43,58.812,30.43,128c0,68.898-23.117,115.072-30.447,128h-31.838c10.436-20.813,28.151-65.297,28.151-128
				s-17.715-107.187-28.151-128H259.703z M208.503,34.133c7.339,12.868,30.43,58.812,30.43,128c0,68.898-23.117,115.072-30.447,128
				h-31.838c10.436-20.813,28.151-65.297,28.151-128s-17.715-107.187-28.151-128H208.503z"/>
			<path d="M173.167,377.967l-25.754,25.745c-9.481-4.275-21.41-2.714-28.979,4.855l-8.533,8.525
				c-4.838,4.838-7.501,11.273-7.501,18.108s2.662,13.269,7.492,18.099c4.838,4.838,11.273,7.501,18.108,7.501
				s13.269-2.662,18.099-7.501l8.533-8.525c4.838-4.838,7.501-11.273,7.501-18.108c0-3.874-0.939-7.578-2.56-10.974l25.66-25.66
				c3.336-3.336,3.336-8.73,0-12.066C181.897,374.63,176.503,374.63,173.167,377.967z M142.566,432.7l-8.542,8.533
				c-3.209,3.226-8.832,3.226-12.058-0.009c-1.613-1.604-2.5-3.746-2.5-6.025s0.887-4.42,2.5-6.033l8.533-8.533
				c1.613-1.613,3.755-2.5,6.033-2.5c2.116,0,4.07,0.836,5.641,2.236c0.102,0.12,0.145,0.282,0.256,0.401
				c0.119,0.111,0.282,0.154,0.401,0.256c1.399,1.562,2.236,3.524,2.236,5.641C145.067,428.945,144.179,431.087,142.566,432.7z"/>
			<path d="M503.467,221.867h-34.133c-23.125,0-42.667,19.541-42.667,42.667v34.133c0,23.125-19.541,42.667-42.667,42.667H68.258
				c-3.021,0-5.811-5.12-9.429-12.348c-4.591-9.19-10.889-21.786-24.695-21.786h-25.6c-4.71,0-8.533,3.823-8.533,8.533V384
				c0,41.207,19.26,57.225,46.464,75.366c3.917,2.611,9.216,1.553,11.836-2.364c2.611-3.925,1.553-9.225-2.364-11.836
				C31.113,428.612,17.067,417.613,17.067,384v-59.733h17.067c3.021,0,5.82,5.12,9.429,12.348
				c4.599,9.19,10.897,21.786,24.695,21.786H384c32.375,0,59.733-27.358,59.733-59.733v-34.133c0-13.636,11.964-25.6,25.6-25.6h25.6
				v15.889c-0.93,0.631-2.62,1.476-3.814,2.074c-4.958,2.483-13.252,6.63-13.252,16.171v76.8c0,62.993-29.449,77.713-63.548,94.763
				c-4.216,2.108-5.931,7.236-3.823,11.452c1.502,2.995,4.514,4.719,7.646,4.719c1.28,0,2.586-0.29,3.806-0.905
				c34.21-17.101,72.986-36.489,72.986-110.029v-75.622c0.93-0.64,2.62-1.476,3.814-2.082C503.706,269.688,512,265.54,512,256v-25.6
				C512,225.69,508.186,221.867,503.467,221.867z"/>
			<path d="M355.9,377.967c-3.337-3.336-8.73-3.336-12.066,0l-25.754,25.745c-9.481-4.275-21.41-2.714-28.979,4.855l-8.533,8.525
				c-4.838,4.838-7.501,11.273-7.501,18.108s2.662,13.269,7.501,18.099c4.83,4.838,11.264,7.501,18.099,7.501
				s13.269-2.662,18.099-7.501l8.533-8.525c4.83-4.838,7.501-11.273,7.501-18.108c0-3.874-0.939-7.578-2.568-10.974l25.668-25.66
				C359.236,386.697,359.236,381.303,355.9,377.967z M313.233,432.7l-8.533,8.533c-3.234,3.226-8.832,3.226-12.066-0.009
				c-1.621-1.604-2.5-3.746-2.5-6.025s0.879-4.42,2.5-6.033l8.533-8.533c1.613-1.613,3.755-2.5,6.033-2.5
				c2.116,0,4.07,0.836,5.641,2.236c0.111,0.12,0.145,0.282,0.256,0.401c0.119,0.111,0.282,0.154,0.401,0.256
				c1.399,1.562,2.236,3.524,2.236,5.641C315.733,428.945,314.854,431.087,313.233,432.7z"/>
			<path d="M258.5,377.967l-25.754,25.745c-9.481-4.275-21.41-2.714-28.979,4.855l-8.533,8.525
				c-4.838,4.838-7.501,11.273-7.501,18.108s2.662,13.269,7.492,18.099c4.838,4.838,11.273,7.501,18.108,7.501
				s13.269-2.662,18.099-7.501l8.533-8.525c4.838-4.838,7.501-11.273,7.501-18.108c0-3.874-0.939-7.578-2.56-10.974l25.66-25.66
				c3.337-3.336,3.337-8.73,0-12.066C267.23,374.63,261.837,374.63,258.5,377.967z M227.9,432.7l-8.533,8.533
				c-3.217,3.226-8.841,3.226-12.066-0.009c-1.613-1.604-2.5-3.746-2.5-6.025s0.888-4.42,2.5-6.033l8.533-8.533
				c1.613-1.613,3.755-2.5,6.033-2.5c2.116,0,4.07,0.836,5.641,2.236c0.102,0.12,0.145,0.282,0.256,0.401
				c0.12,0.111,0.282,0.154,0.401,0.256c1.399,1.562,2.236,3.524,2.236,5.641C230.4,428.945,229.513,431.087,227.9,432.7z"/>
		</g>
	</g>
</g>
</svg>