<?xml version="1.0" encoding="utf-8"?>

<!DOCTYPE svg PUBLIC "-//W3C//DTD SVG 1.1//EN" "http://www.w3.org/Graphics/SVG/1.1/DTD/svg11.dtd">
<!-- Uploaded to: SVG Repo, www.svgrepo.com, Generator: SVG Repo Mixer Tools -->
<svg height="800px" width="800px" version="1.1" id="_x32_" xmlns="http://www.w3.org/2000/svg" xmlns:xlink="http://www.w3.org/1999/xlink" 
	 viewBox="0 0 512 512"  xml:space="preserve">
<style type="text/css">
	.st0{fill:#000000;}
</style>
<g>
	<path class="st0" d="M424.354,461.167c0.025-16.547-4.21-29.902-11.134-40.311c-6.936-10.441-16.291-17.745-26.165-23.159
		c-3.262-4.965-8.782-9.056-23.47-10.504c-4.778-0.474-11.526-10.547-15.618-11.92c-9.013-3.031-16.254-2.089-21.668,0.917
		c-1.142-0.543-2.239-1.116-3.344-1.702c3.955-2.888,8.028-7.104,12.262-12.868c13.872-18.979,28.885-54.251,28.91-103.743
		c0-33.588,0-50.378,0-58.774c0-8.389,0-8.389,0-8.389l-0.293-0.006l0.804-4.603l-8.052-1.41
		c-0.549-6.424-2.613-13.385-6.243-20.614c-6.356-12.537-17.321-25.678-33.126-35.782c-13.934-8.894-31.654-15.331-52.96-16.722
		V81.496h-16.953c3.15-0.262,6.324-0.418,9.549-0.387c46.206,0.387,85.05,31.018,97.987,72.932l77.51-23.92
		C409.285,55.33,339.958,0.692,257.54,0.006C174.018-0.692,103.038,54.208,79.649,130.12l77.522,23.92
		c12.163-39.432,47.234-68.716,89.566-72.483v30.12c-29.346,1.927-51.887,13.354-67.162,27.606
		c-8.408,7.828-14.688,16.429-18.924,24.799c-3.636,7.23-5.701,14.203-6.243,20.627l-8.053,1.397l0.798,4.603h-0.287
		c0,0,0,0,0,67.168c0,37.691,8.745,67.187,19.011,87.439c5.146,10.135,10.641,17.97,15.787,23.483
		c0.941,1.01,1.864,1.852,2.781,2.707c-3.119,3.412-5.969,7.778-7.796,9.599c-10.235-2.27-23.096,3.425-28.292,8.813
		c-10.79,3.836-22.104,9.138-31.81,17.458c-6.661,5.726-12.506,12.911-16.622,21.843c-4.116,8.926-6.48,19.535-6.474,31.947
		c0,2.875,0.125,5.857,0.381,8.931c0.194,2.165,1.017,3.917,1.978,5.358c1.84,2.7,4.272,4.709,7.328,6.768
		c5.345,3.536,12.743,6.992,22.223,10.384c28.373,10.117,75.346,19.379,133.545,19.392c45.301,0,83.709-5.651,111.914-12.899
		c6.861-0.461,12.355-1.397,16.085-2.644c21.905-7.298,36.506-1.459,37.966-27.743c0.136-2.42-0.1-4.903-0.524-7.41
		C424.348,461.26,424.354,461.21,424.354,461.167z M351.286,257.878c0,35.683-8.302,63.214-17.639,81.626
		c-4.653,9.207-9.593,16.13-13.709,20.521c-2.052,2.202-3.905,3.761-5.227,4.628c-0.48,0.312-0.836,0.512-1.129,0.649
		c-0.399-1.99-0.586-4.952-0.686-8.289c-0.181-5.283-0.187-11.402-1.434-17.046c-0.336-1.472-0.78-2.932-1.353-4.341
		c0,0,0-0.1,0-0.15h-0.081c-0.505-1.229-1.092-2.426-1.877-3.556c-1.672-2.463-4.285-4.572-7.51-5.513
		c-0.961-0.312-1.615-0.83-2.314-2.083c-0.668-1.229-1.142-3.175-1.136-5.464c-0.006-2.77,0.68-5.994,2.027-8.932
		c1.341-2.944,3.331-5.576,5.807-7.435l-0.043,0.038l0.012-0.013c8.894-6.549,14.258-15.418,17.315-24.406
		c3.068-9,3.942-18.194,3.948-25.965c0-6.692-0.648-12.287-1.198-15.88h26.228C351.286,242.565,351.286,249.713,351.286,257.878z
		 M220.273,306.041c-1.903-4.148-4.765-8.065-8.695-11.015l-0.043-0.038l0.012,0.006c-7.073-5.22-11.402-12.237-14.021-19.896
		c-2.62-7.653-3.443-15.886-3.443-22.953c0-5.214,0.442-9.78,0.873-13.023c0.162-1.16,0.312-2.071,0.443-2.857h60.096h60.102
		c0.512,3,1.316,8.844,1.31,15.88c0.006,7.067-0.823,15.3-3.437,22.953c-2.632,7.659-6.948,14.682-14.021,19.896l-0.031,0.032
		c-3.936,2.95-6.799,6.861-8.701,11.015c-1.902,4.166-2.863,8.588-2.869,12.817c0.006,3.48,0.648,6.861,2.233,9.855
		c1.546,2.982,4.285,5.589,7.878,6.649c0.1,0.025,0.156,0.075,0.249,0.112h-0.942h-0.006c0,11.682,0,20.196,0,27.014
		c0.006,4.372,1.796,8.202,4.129,11.258c3.548,4.615,8.433,8.096,13.64,11.09c0.749,0.418,1.522,0.736,2.283,1.135
		c-0.15,0.337-0.355,0.643-0.492,0.98c-11.676,29.202-89.067,32.122-89.067,32.122c-0.137,1.072-0.318,2.077-0.493,3.087
		c-1.852-9.431-8.919-16.897-18.044-19.516c-1.946-4.853-4.771-11.919-7.59-18.955c1.104-0.942,2.177-1.908,3.143-2.957
		c4.56-4.914,7.522-11.283,7.51-18.243c0-6.761,0-15.207,0-26.733c0.25-0.131,0.449-0.299,0.755-0.393
		c3.593-1.06,6.331-3.667,7.878-6.649c1.584-2.994,2.226-6.375,2.239-9.855C223.142,314.63,222.169,310.207,220.273,306.041z
		 M172.115,169.883c5.283-10.46,14.783-21.955,28.573-30.743c13.803-8.801,31.885-15.001,54.806-15.013
		c30.543,0.032,52.554,11.009,67.175,24.568c7.285,6.774,12.686,14.221,16.21,21.188c2.296,4.516,3.699,8.788,4.441,12.493
		l-87.021-15.25l-0.218,1.241l-0.212-1.241l-88.206,15.294C168.404,178.709,169.808,174.418,172.115,169.883z M159.71,199.104
		c0-2.788,0-4.584,0-5.826l96.364-16.703l95.211,16.678c0,3.618,0,12.375,0,33.668h-95.791H159.71
		C159.71,212.963,159.71,204.374,159.71,199.104z M183.885,350.806c-11.558-17.365-24.188-48.981-24.175-92.928
		c0-8.164,0-15.313,0-21.612h26.227c-0.549,3.599-1.191,9.188-1.198,15.88c0.006,7.772,0.873,16.966,3.942,25.965
		c3.056,8.988,8.42,17.857,17.321,24.413l-0.025-0.018c2.476,1.858,4.454,4.484,5.801,7.422c1.347,2.938,2.027,6.162,2.021,8.932
		c0.013,2.289-0.462,4.235-1.135,5.464c-0.699,1.254-1.354,1.771-2.314,2.083c-2.695,0.792-4.99,2.395-6.624,4.354
		c-1.21,1.459-2.058,3.062-2.751,4.715h-1.547c0,1.821,0,3.437,0,5.115c-0.138,0.667-0.28,1.335-0.393,2.008
		c-0.961,6.312-0.774,13.06-1.104,18.219c-0.106,1.752-0.287,3.287-0.517,4.466c-0.618-0.293-1.716-0.929-3.112-2.127
		C191.463,360.76,187.721,356.581,183.885,350.806z M202.204,407.39c10.878,0.018,19.684,8.832,19.709,19.709
		c-0.025,10.884-8.832,19.691-19.709,19.716c-10.884-0.025-19.697-8.832-19.716-19.716
		C182.507,416.222,191.32,407.408,202.204,407.39z M115.244,474.408c-3.499-1.796-6.081-3.512-7.503-4.772
		c-0.611-0.524-0.954-0.935-1.128-1.166c-0.2-2.532-0.312-4.977-0.312-7.303c0.026-14.42,3.549-24.956,8.994-33.213
		c7.759-11.751,19.996-19.136,32.951-24.257c-2.264,2.27-4.696,4.946-7.179,8.096c-10.086,12.767-20.951,33.12-24.531,63.183
		l9.274,1.11c3.4-28.348,13.472-46.928,22.591-58.505c3.219-4.092,6.306-7.248,8.957-9.674c2.801,2.632,5.813,5.333,8.701,7.852
		c-2.838,2.52-7.26,7.048-11.919,14.134c-7.216,10.952-14.839,28.08-17.901,52.816C127.482,479.922,120.366,477.053,115.244,474.408
		z M258.906,499.157c-46.162,0-85.094-6.031-112.332-13.404c-0.43-0.124-0.835-0.243-1.266-0.356
		c2.775-24.25,10.054-40.349,16.64-50.372c3.4-5.176,6.605-8.744,8.919-10.984c0.998-0.973,1.784-1.653,2.389-2.146
		c1.391,1.167,2.62,2.183,3.618,3.006c-0.062,0.736-0.225,1.447-0.225,2.196c0,14.115,11.439,25.554,25.554,25.554
		c3.38,0,6.599-0.692,9.549-1.89c37.024,25.535,76.15,38.795,108.514,44.689C301.831,497.741,281.223,499.157,258.906,499.157z"/>
	<path class="st0" d="M202.204,433.492c3.53,0,6.387-2.863,6.387-6.394c0-3.53-2.857-6.387-6.387-6.387
		c-3.531,0-6.387,2.857-6.387,6.387C195.817,430.629,198.673,433.492,202.204,433.492z"/>
	<path class="st0" d="M205.952,302.492l0.025,0.013c0,0-0.006,0-0.012-0.013H205.952z"/>
	<path class="st0" d="M199.036,315.89c0-3.231-2.614-5.844-5.838-5.844c-3.23,0-5.844,2.613-5.844,5.844
		c0,3.225,2.614,5.838,5.844,5.838C196.422,321.727,199.036,319.115,199.036,315.89z"/>
	<path class="st0" d="M315.846,310.045c-3.231,0-5.838,2.613-5.838,5.844c0,3.225,2.607,5.838,5.838,5.838s5.838-2.613,5.838-5.838
		C321.684,312.659,319.076,310.045,315.846,310.045z"/>
</g>
</svg>